<?xml version="1.0" standalone="no"?>
<!DOCTYPE svg PUBLIC "-//W3C//DTD SVG 20010904//EN"
 "http://www.w3.org/TR/2001/REC-SVG-20010904/DTD/svg10.dtd">
<svg version="1.0" xmlns="http://www.w3.org/2000/svg"
 width="192.000000pt" height="192.000000pt" viewBox="0 0 192.000000 192.000000"
 preserveAspectRatio="xMidYMid meet">
<metadata>
Created by potrace 1.14, written by Peter Selinger 2001-2017
</metadata>
<g transform="translate(0.000000,192.000000) scale(0.100000,-0.100000)"
fill="#000000" stroke="none">
<path d="M142 1899 c-45 -13 -108 -79 -121 -126 -16 -56 -15 -1578 1 -1624 16
-48 46 -86 88 -112 l35 -22 798 -3 797 -2 51 21 c36 16 59 35 82 68 l32 46 3
799 2 798 -24 53 c-17 39 -36 62 -68 82 l-43 28 -800 2 c-485 1 -813 -2 -833
-8z"/>
</g>
</svg>
